<svg width="23" height="23" viewBox="0 0 23 23" fill="none" xmlns="http://www.w3.org/2000/svg">
<path d="M11.5 0C5.15465 0 0 5.15465 0 11.5C0 17.8454 5.15465 23 11.5 23C17.8454 23 23 17.8454 23 11.5C23 5.15465 17.8454 0 11.5 0ZM11.5 1C17.3049 1 22 5.69509 22 11.5C22 17.3049 17.3049 22 11.5 22C5.69509 22 1 17.3049 1 11.5C1 5.69509 5.69509 1 11.5 1ZM11.4922 2.49316C11.3597 2.49523 11.2335 2.54976 11.1413 2.64479C11.049 2.73981 10.9982 2.86756 11 3V10.0869C10.7077 10.1902 10.4547 10.3816 10.2756 10.6346C10.0965 10.8877 10.0002 11.19 10 11.5C10.0005 11.7235 10.0508 11.944 10.1475 12.1455L7.14648 15.1465C7.0985 15.1926 7.06019 15.2477 7.03379 15.3088C7.0074 15.3699 6.99346 15.4356 6.99278 15.5021C6.9921 15.5686 7.00471 15.6346 7.02985 15.6962C7.05499 15.7578 7.09218 15.8137 7.13921 15.8608C7.18625 15.9078 7.24221 15.945 7.3038 15.9701C7.36538 15.9953 7.43137 16.0079 7.49789 16.0072C7.56441 16.0065 7.63013 15.9926 7.69119 15.9662C7.75226 15.9398 7.80744 15.9015 7.85352 15.8535L10.8545 12.8525C11.056 12.9492 11.2765 12.9995 11.5 13C11.8978 13 12.2794 12.842 12.5607 12.5607C12.842 12.2794 13 11.8978 13 11.5C12.9996 11.1902 12.9032 10.8881 12.7241 10.6352C12.5451 10.3824 12.2921 10.1912 12 10.0879V3C12.0009 2.93311 11.9884 2.86671 11.9632 2.80474C11.938 2.74277 11.9006 2.68648 11.8532 2.63922C11.8059 2.59196 11.7495 2.55469 11.6875 2.5296C11.6255 2.50451 11.5591 2.49212 11.4922 2.49316Z" fill="black"/>
</svg>
