<svg width="21" height="26" viewBox="0 0 21 26" fill="none" xmlns="http://www.w3.org/2000/svg">
<path d="M10.5 0C8.17852 0 6.17285 0.917969 4.92188 2.40625C3.6709 3.89453 3.15 5.82422 3.15 7.90625V9H6.3V7.90625C6.3 6.32812 6.71016 5.08594 7.38281 4.28125C8.05547 3.47656 8.97012 3 10.5 3C12.034 3 12.9445 3.44922 13.6172 4.25C14.2898 5.05078 14.7 6.30859 14.7 7.90625V9H17.85V7.90625C17.85 5.8125 17.2963 3.86328 16.0453 2.375C14.7943 0.886719 12.8174 0 10.5 0ZM3.15 10C1.41094 10 0 11.3438 0 13V23C0 24.6562 1.41094 26 3.15 26H17.85C19.5891 26 21 24.6562 21 23V13C21 11.3438 19.5891 10 17.85 10H3.15ZM10.5 15C11.6607 15 12.6 15.8945 12.6 17C12.6 17.7383 12.1775 18.3711 11.55 18.7188V21C11.55 21.5508 11.0783 22 10.5 22C9.92168 22 9.45 21.5508 9.45 21V18.7188C8.82246 18.3711 8.4 17.7383 8.4 17C8.4 15.8945 9.33926 15 10.5 15Z" fill="#351C0C"/>
</svg>
